<svg xmlns="http://www.w3.org/2000/svg" viewBox="0 0 512 512" fill="none">
  <defs>
    <linearGradient id="cpbg" x1="0" y1="0" x2="0" y2="1">
      <stop offset="0%"   stop-color="#1E4299"/>
      <stop offset="100%" stop-color="#0E2560"/>
    </linearGradient>
    <radialGradient id="cpgold" cx="50%" cy="35%" r="60%">
      <stop offset="0%"   stop-color="#FFE066"/>
      <stop offset="55%"  stop-color="#E8A900"/>
      <stop offset="100%" stop-color="#B07800"/>
    </radialGradient>
    <filter id="cp-glow" x="-30%" y="-30%" width="160%" height="160%">
      <feGaussianBlur stdDeviation="12" result="blur"/>
      <feMerge><feMergeNode in="blur"/><feMergeNode in="SourceGraphic"/></feMerge>
    </filter>
    <filter id="cp-arc-glow" x="-10%" y="-10%" width="120%" height="120%">
      <feGaussianBlur stdDeviation="4" result="blur"/>
      <feMerge><feMergeNode in="blur"/><feMergeNode in="SourceGraphic"/></feMerge>
    </filter>
  </defs>

  <!-- Background istituzionale -->
  <rect width="512" height="512" rx="108" fill="url(#cpbg)"/>

  <!-- Texture righe documento -->
  <line x1="128" y1="186" x2="384" y2="186" stroke="white" stroke-opacity="0.06" stroke-width="1.5"/>
  <line x1="128" y1="210" x2="384" y2="210" stroke="white" stroke-opacity="0.06" stroke-width="1.5"/>
  <line x1="128" y1="234" x2="384" y2="234" stroke="white" stroke-opacity="0.06" stroke-width="1.5"/>
  <line x1="128" y1="302" x2="384" y2="302" stroke="white" stroke-opacity="0.04" stroke-width="1.5"/>
  <line x1="128" y1="326" x2="384" y2="326" stroke="white" stroke-opacity="0.04" stroke-width="1.5"/>

  <!-- Arco C principale -->
  <path
    d="M 358 140 A 138 138 0 1 0 358 372"
    stroke="white"
    stroke-width="28"
    stroke-linecap="round"
    fill="none"
    stroke-opacity="0.95"
    filter="url(#cp-arc-glow)"
  />

  <!-- Arco interno sottile -->
  <path
    d="M 340 168 A 104 104 0 1 0 340 344"
    stroke="white"
    stroke-width="4"
    stroke-linecap="round"
    fill="none"
    stroke-opacity="0.25"
  />

  <!-- Scintilla AI gold al centro -->
  <g filter="url(#cp-glow)" transform="translate(256,256)">
    <circle r="38" fill="#E8A900" fill-opacity="0.18"/>
    <circle r="24" fill="#E8A900" fill-opacity="0.28"/>
    <circle r="14" fill="url(#cpgold)"/>
    <path d="M0,-40 L5,-16 L0,-8 L-5,-16 Z"  fill="#FFE066" fill-opacity="0.9"/>
    <path d="M0,40  L5,16  L0,8  L-5,16  Z"   fill="#FFE066" fill-opacity="0.9"/>
    <path d="M-40,0 L-16,5 L-8,0 L-16,-5 Z"  fill="#FFE066" fill-opacity="0.9"/>
    <path d="M40,0  L16,5  L8,0  L16,-5  Z"   fill="#FFE066" fill-opacity="0.9"/>
    <path d="M-24,-24 L-10,-8 L-8,-10 L-8,-8 Z" fill="#FFE066" fill-opacity="0.5"/>
    <path d="M24,-24  L10,-8  L8,-10  L8,-8  Z"  fill="#FFE066" fill-opacity="0.5"/>
    <path d="M-24,24  L-10,8  L-8,10  L-8,8  Z"  fill="#FFE066" fill-opacity="0.5"/>
    <path d="M24,24   L10,8   L8,10   L8,8   Z"  fill="#FFE066" fill-opacity="0.5"/>
    <circle r="5" fill="white" fill-opacity="0.9"/>
  </g>

  <!-- Terminali gold del C -->
  <line x1="358" y1="140" x2="390" y2="140" stroke="#E8A900" stroke-width="9" stroke-linecap="round"/>
  <line x1="358" y1="372" x2="390" y2="372" stroke="#E8A900" stroke-width="9" stroke-linecap="round"/>
</svg>
